%
M48
M72
T01C0.01200
T02C0.01378
T03C0.02362
T04C0.02756
T05C0.03150
T06C0.03500
T07C0.04000
T08C0.05512
T09C0.11811
%
T01
X60100Y18750
X64100Y18750
X68100Y18750
X72100Y18750
X76100Y18750
X80100Y18750
X84200Y28350
X84200Y33350
X84200Y38350
X86200Y46350
X86200Y52350
X86200Y55350
X86200Y58350
X89200Y58350
X89200Y55350
X89200Y52350
X94200Y51350
X97200Y51350
X97200Y55350
X94200Y55350
X94200Y59350
X97200Y59350
X109900Y51250
X110100Y47350
X105900Y43750
X99600Y39450
X99600Y35350
X117500Y32450
X125200Y33350
X130400Y42250
X135282Y42232
X132200Y49450
X129100Y48250
X123200Y47550
X120700Y43750
X115800Y48550
X132000Y59750
X139000Y62850
X152200Y64350
X158200Y60350
X152200Y59350
X152200Y54350
X158200Y54350
X165200Y54350
X165200Y60350
X173200Y54350
X180100Y61950
X180100Y64950
X177100Y64950
X183100Y64950
X184100Y61950
X186100Y64950
X188100Y61950
X186100Y58950
X183100Y58950
X189100Y53950
X191100Y58950
X202500Y70550
X202500Y75550
X206500Y78550
X202500Y80550
X210500Y80550
X216500Y80550
X222500Y80550
X216500Y75550
X210500Y75550
X210500Y70550
X216500Y70550
X231500Y67550
X231500Y63550
X231500Y59550
X231500Y55550
X217500Y99550
X213500Y99550
X209500Y99550
X209500Y103550
X209500Y107550
X209500Y111550
X213500Y111550
X217500Y111550
X213500Y107550
X213500Y103550
X194400Y118050
X177300Y131750
X177300Y135750
X177300Y139750
X177300Y143750
X173300Y150750
X173300Y154750
X169300Y154750
X169300Y157750
X174300Y161250
X177500Y161150
X177300Y154750
X168500Y172350
X168300Y175750
X164300Y175750
X164900Y172350
X161500Y172450
X164300Y179750
X168300Y179750
X145200Y179850
X145200Y176850
X145400Y173750
X145400Y170750
X143000Y169150
X140900Y171050
X137200Y169150
X129902Y172050
X125300Y172750
X125300Y168750
X120300Y168750
X120300Y172750
X120300Y176750
X115300Y176750
X115300Y172750
X110300Y176750
X125300Y176750
X130300Y176750
X134100Y162850
X136900Y162850
X139800Y162850
X139700Y159750
X137000Y159750
X134200Y159750
X134200Y156550
X137100Y156550
X139700Y156550
X139800Y153450
X137100Y153450
X134200Y153450
X126300Y144750
X126300Y139750
X126300Y134750
X133500Y131450
X137500Y131450
X137500Y134450
X137500Y137450
X137500Y140450
X141500Y140450
X141500Y137450
X141500Y134450
X141500Y131450
X145500Y131450
X140500Y121450
X135200Y114350
X135200Y110350
X135200Y106350
X135200Y102350
X140060Y100790
X137200Y94350
X139600Y92350
X148500Y97450
X148500Y101450
X148500Y105450
X152100Y107150
X152500Y120450
X129900Y128350
X126300Y128750
X120300Y128750
X114300Y128750
X114300Y134750
X114300Y139750
X120300Y139750
X120300Y134750
X108300Y134750
X108300Y139750
X102600Y132850
X96600Y132850
X108300Y128750
X109200Y121350
X113200Y121350
X116200Y121350
X119200Y121350
X122200Y121350
X126500Y106950
X123939Y104050
X113900Y106250
X108200Y105350
X96200Y108750
X95200Y113350
X95200Y121350
X103200Y121350
X110300Y146750
X114300Y146750
X118300Y146750
X121300Y149750
X89600Y147850
X89600Y152850
X89600Y157850
X89600Y162850
X89600Y167850
X89600Y172850
X82600Y172850
X82600Y167850
X82600Y162850
X82600Y157850
X82600Y152850
X82600Y147850
X76600Y147850
X76600Y152850
X76600Y157850
X76600Y162850
X76600Y167850
X76600Y172850
X66600Y178850
X62600Y178850
X62600Y174850
X57600Y174850
X57600Y178850
X57600Y181850
X53600Y181850
X53600Y178850
X49600Y181850
X45600Y181850
X41600Y181850
X41600Y177850
X41600Y173850
X40600Y169850
X53600Y174850
X18300Y162850
X34600Y136850
X34600Y132850
X34600Y128850
X34600Y124850
X38600Y124850
X38600Y128850
X38600Y132850
X38600Y136850
X42600Y136850
X42600Y132850
X42600Y128850
X42600Y124850
X89200Y91350
X89200Y87350
X94200Y86350
X97200Y87350
X102900Y87350
X97200Y78350
X94200Y78350
X89200Y78350
X79400Y77650
X75400Y77650
X73700Y81750
X82400Y87650
X62100Y76950
X59100Y76950
X56100Y76950
X53100Y76950
X50100Y76950
X50100Y73950
X53100Y73950
X56100Y73950
X56100Y80950
X53100Y80950
X50100Y80950
X59100Y80950
X73200Y64650
X69100Y62950
X69200Y56350
X55800Y55550
X50800Y55550
X32800Y62550
X28800Y62550
X24800Y62550
X20800Y62550
X20800Y67550
X24800Y67550
X28800Y67550
X32800Y67550
X32800Y72550
X28800Y72550
X24800Y72550
X20800Y72550
X112100Y5750
X121100Y5750
X131100Y5750
X141100Y5750
X137500Y14150
X134000Y18050
X141900Y20750
X144700Y26350
X139000Y30350
X152200Y35350
X156000Y30350
X165300Y44050
X169700Y44050
X174200Y44150
X148200Y47350
X144300Y46850
X145700Y50450
X135200Y76250
X139100Y76950
X147100Y76750
X152200Y89350
X130100Y89750
X120600Y84650
X117000Y84650
X119100Y90750
X116800Y21650
X125400Y14150
X152700Y5050
X203500Y166550
X207500Y166550
X207500Y170550
X203500Y170550
X203500Y174550
X207500Y174550
X207500Y178550
X203500Y178550
T02
X54310Y70560
X188000Y56650
T03
X156506Y37356
X146506Y37356
X136506Y37356
X126506Y37356
X116506Y37356
X106506Y37356
X106506Y7356
X116506Y7356
X126506Y7356
X136506Y7356
X146506Y7356
X156506Y7356
T04
X31100Y90450
X31100Y91050
X31100Y91450
X21500Y86950
X20500Y86950
X19500Y86950
X31100Y110050
X31100Y110550
X31100Y111050
X21500Y114550
X20400Y114550
X19500Y114550
T05
X175585Y168763
X185585Y178606
X195585Y168763
T06
X222054Y143482
X232054Y143482
X232054Y88364
X222054Y88364
T07
X42300Y27750
T08
X27200Y130350
X27200Y150350
X224847Y125923
X224847Y105923
T09
X26611Y13561
X226611Y13561
X226611Y173561
X26611Y173561
M30
