G75*
%MOIN*%
%OFA0B0*%
%FSLAX25Y25*%
%IPPOS*%
%LPD*%
%AMOC8*
5,1,8,0,0,1.08239X$1,22.5*
%
%ADD10C,0.00000*%
%ADD11C,0.12211*%
%ADD12R,0.05400X0.06400*%
%ADD13C,0.00975*%
%ADD14C,0.01450*%
%ADD15R,0.05715X0.05715*%
%ADD16C,0.05715*%
%ADD17R,0.14180X0.04337*%
%ADD18R,0.14180X0.08274*%
%ADD19C,0.10243*%
%ADD20R,0.04762X0.04762*%
%ADD21C,0.04762*%
%ADD22R,0.03900X0.04900*%
%ADD23R,0.05400X0.10400*%
%ADD24C,0.00200*%
%ADD25C,0.00640*%
%ADD26C,0.05156*%
%ADD27C,0.05400*%
%ADD28R,0.02369X0.02959*%
%ADD29R,0.07093X0.10243*%
%ADD30R,0.06900X0.06900*%
%ADD31C,0.06900*%
%ADD32R,0.01975X0.05124*%
%ADD33R,0.01778X0.06306*%
%ADD34C,0.01660*%
%ADD35R,0.08600X0.12400*%
%ADD36C,0.00100*%
%ADD37R,0.01000X0.01300*%
%ADD38R,0.02900X0.06400*%
%ADD39R,0.07900X0.15400*%
%ADD40R,0.14180X0.16148*%
%ADD41R,0.06400X0.02900*%
%ADD42R,0.04337X0.05912*%
%ADD43OC8,0.07000*%
%ADD44R,0.06400X0.05400*%
D10*
X0014800Y0001750D02*
X0014800Y0185372D01*
X0238422Y0185372D01*
X0238422Y0001750D01*
X0014800Y0001750D01*
X0020705Y0013561D02*
X0020707Y0013714D01*
X0020713Y0013868D01*
X0020723Y0014021D01*
X0020737Y0014173D01*
X0020755Y0014326D01*
X0020777Y0014477D01*
X0020802Y0014628D01*
X0020832Y0014779D01*
X0020866Y0014929D01*
X0020903Y0015077D01*
X0020944Y0015225D01*
X0020989Y0015371D01*
X0021038Y0015517D01*
X0021091Y0015661D01*
X0021147Y0015803D01*
X0021207Y0015944D01*
X0021271Y0016084D01*
X0021338Y0016222D01*
X0021409Y0016358D01*
X0021484Y0016492D01*
X0021561Y0016624D01*
X0021643Y0016754D01*
X0021727Y0016882D01*
X0021815Y0017008D01*
X0021906Y0017131D01*
X0022000Y0017252D01*
X0022098Y0017370D01*
X0022198Y0017486D01*
X0022302Y0017599D01*
X0022408Y0017710D01*
X0022517Y0017818D01*
X0022629Y0017923D01*
X0022743Y0018024D01*
X0022861Y0018123D01*
X0022980Y0018219D01*
X0023102Y0018312D01*
X0023227Y0018401D01*
X0023354Y0018488D01*
X0023483Y0018570D01*
X0023614Y0018650D01*
X0023747Y0018726D01*
X0023882Y0018799D01*
X0024019Y0018868D01*
X0024158Y0018933D01*
X0024298Y0018995D01*
X0024440Y0019053D01*
X0024583Y0019108D01*
X0024728Y0019159D01*
X0024874Y0019206D01*
X0025021Y0019249D01*
X0025169Y0019288D01*
X0025318Y0019324D01*
X0025468Y0019355D01*
X0025619Y0019383D01*
X0025770Y0019407D01*
X0025923Y0019427D01*
X0026075Y0019443D01*
X0026228Y0019455D01*
X0026381Y0019463D01*
X0026534Y0019467D01*
X0026688Y0019467D01*
X0026841Y0019463D01*
X0026994Y0019455D01*
X0027147Y0019443D01*
X0027299Y0019427D01*
X0027452Y0019407D01*
X0027603Y0019383D01*
X0027754Y0019355D01*
X0027904Y0019324D01*
X0028053Y0019288D01*
X0028201Y0019249D01*
X0028348Y0019206D01*
X0028494Y0019159D01*
X0028639Y0019108D01*
X0028782Y0019053D01*
X0028924Y0018995D01*
X0029064Y0018933D01*
X0029203Y0018868D01*
X0029340Y0018799D01*
X0029475Y0018726D01*
X0029608Y0018650D01*
X0029739Y0018570D01*
X0029868Y0018488D01*
X0029995Y0018401D01*
X0030120Y0018312D01*
X0030242Y0018219D01*
X0030361Y0018123D01*
X0030479Y0018024D01*
X0030593Y0017923D01*
X0030705Y0017818D01*
X0030814Y0017710D01*
X0030920Y0017599D01*
X0031024Y0017486D01*
X0031124Y0017370D01*
X0031222Y0017252D01*
X0031316Y0017131D01*
X0031407Y0017008D01*
X0031495Y0016882D01*
X0031579Y0016754D01*
X0031661Y0016624D01*
X0031738Y0016492D01*
X0031813Y0016358D01*
X0031884Y0016222D01*
X0031951Y0016084D01*
X0032015Y0015944D01*
X0032075Y0015803D01*
X0032131Y0015661D01*
X0032184Y0015517D01*
X0032233Y0015371D01*
X0032278Y0015225D01*
X0032319Y0015077D01*
X0032356Y0014929D01*
X0032390Y0014779D01*
X0032420Y0014628D01*
X0032445Y0014477D01*
X0032467Y0014326D01*
X0032485Y0014173D01*
X0032499Y0014021D01*
X0032509Y0013868D01*
X0032515Y0013714D01*
X0032517Y0013561D01*
X0032515Y0013408D01*
X0032509Y0013254D01*
X0032499Y0013101D01*
X0032485Y0012949D01*
X0032467Y0012796D01*
X0032445Y0012645D01*
X0032420Y0012494D01*
X0032390Y0012343D01*
X0032356Y0012193D01*
X0032319Y0012045D01*
X0032278Y0011897D01*
X0032233Y0011751D01*
X0032184Y0011605D01*
X0032131Y0011461D01*
X0032075Y0011319D01*
X0032015Y0011178D01*
X0031951Y0011038D01*
X0031884Y0010900D01*
X0031813Y0010764D01*
X0031738Y0010630D01*
X0031661Y0010498D01*
X0031579Y0010368D01*
X0031495Y0010240D01*
X0031407Y0010114D01*
X0031316Y0009991D01*
X0031222Y0009870D01*
X0031124Y0009752D01*
X0031024Y0009636D01*
X0030920Y0009523D01*
X0030814Y0009412D01*
X0030705Y0009304D01*
X0030593Y0009199D01*
X0030479Y0009098D01*
X0030361Y0008999D01*
X0030242Y0008903D01*
X0030120Y0008810D01*
X0029995Y0008721D01*
X0029868Y0008634D01*
X0029739Y0008552D01*
X0029608Y0008472D01*
X0029475Y0008396D01*
X0029340Y0008323D01*
X0029203Y0008254D01*
X0029064Y0008189D01*
X0028924Y0008127D01*
X0028782Y0008069D01*
X0028639Y0008014D01*
X0028494Y0007963D01*
X0028348Y0007916D01*
X0028201Y0007873D01*
X0028053Y0007834D01*
X0027904Y0007798D01*
X0027754Y0007767D01*
X0027603Y0007739D01*
X0027452Y0007715D01*
X0027299Y0007695D01*
X0027147Y0007679D01*
X0026994Y0007667D01*
X0026841Y0007659D01*
X0026688Y0007655D01*
X0026534Y0007655D01*
X0026381Y0007659D01*
X0026228Y0007667D01*
X0026075Y0007679D01*
X0025923Y0007695D01*
X0025770Y0007715D01*
X0025619Y0007739D01*
X0025468Y0007767D01*
X0025318Y0007798D01*
X0025169Y0007834D01*
X0025021Y0007873D01*
X0024874Y0007916D01*
X0024728Y0007963D01*
X0024583Y0008014D01*
X0024440Y0008069D01*
X0024298Y0008127D01*
X0024158Y0008189D01*
X0024019Y0008254D01*
X0023882Y0008323D01*
X0023747Y0008396D01*
X0023614Y0008472D01*
X0023483Y0008552D01*
X0023354Y0008634D01*
X0023227Y0008721D01*
X0023102Y0008810D01*
X0022980Y0008903D01*
X0022861Y0008999D01*
X0022743Y0009098D01*
X0022629Y0009199D01*
X0022517Y0009304D01*
X0022408Y0009412D01*
X0022302Y0009523D01*
X0022198Y0009636D01*
X0022098Y0009752D01*
X0022000Y0009870D01*
X0021906Y0009991D01*
X0021815Y0010114D01*
X0021727Y0010240D01*
X0021643Y0010368D01*
X0021561Y0010498D01*
X0021484Y0010630D01*
X0021409Y0010764D01*
X0021338Y0010900D01*
X0021271Y0011038D01*
X0021207Y0011178D01*
X0021147Y0011319D01*
X0021091Y0011461D01*
X0021038Y0011605D01*
X0020989Y0011751D01*
X0020944Y0011897D01*
X0020903Y0012045D01*
X0020866Y0012193D01*
X0020832Y0012343D01*
X0020802Y0012494D01*
X0020777Y0012645D01*
X0020755Y0012796D01*
X0020737Y0012949D01*
X0020723Y0013101D01*
X0020713Y0013254D01*
X0020707Y0013408D01*
X0020705Y0013561D01*
X0020705Y0173561D02*
X0020707Y0173714D01*
X0020713Y0173868D01*
X0020723Y0174021D01*
X0020737Y0174173D01*
X0020755Y0174326D01*
X0020777Y0174477D01*
X0020802Y0174628D01*
X0020832Y0174779D01*
X0020866Y0174929D01*
X0020903Y0175077D01*
X0020944Y0175225D01*
X0020989Y0175371D01*
X0021038Y0175517D01*
X0021091Y0175661D01*
X0021147Y0175803D01*
X0021207Y0175944D01*
X0021271Y0176084D01*
X0021338Y0176222D01*
X0021409Y0176358D01*
X0021484Y0176492D01*
X0021561Y0176624D01*
X0021643Y0176754D01*
X0021727Y0176882D01*
X0021815Y0177008D01*
X0021906Y0177131D01*
X0022000Y0177252D01*
X0022098Y0177370D01*
X0022198Y0177486D01*
X0022302Y0177599D01*
X0022408Y0177710D01*
X0022517Y0177818D01*
X0022629Y0177923D01*
X0022743Y0178024D01*
X0022861Y0178123D01*
X0022980Y0178219D01*
X0023102Y0178312D01*
X0023227Y0178401D01*
X0023354Y0178488D01*
X0023483Y0178570D01*
X0023614Y0178650D01*
X0023747Y0178726D01*
X0023882Y0178799D01*
X0024019Y0178868D01*
X0024158Y0178933D01*
X0024298Y0178995D01*
X0024440Y0179053D01*
X0024583Y0179108D01*
X0024728Y0179159D01*
X0024874Y0179206D01*
X0025021Y0179249D01*
X0025169Y0179288D01*
X0025318Y0179324D01*
X0025468Y0179355D01*
X0025619Y0179383D01*
X0025770Y0179407D01*
X0025923Y0179427D01*
X0026075Y0179443D01*
X0026228Y0179455D01*
X0026381Y0179463D01*
X0026534Y0179467D01*
X0026688Y0179467D01*
X0026841Y0179463D01*
X0026994Y0179455D01*
X0027147Y0179443D01*
X0027299Y0179427D01*
X0027452Y0179407D01*
X0027603Y0179383D01*
X0027754Y0179355D01*
X0027904Y0179324D01*
X0028053Y0179288D01*
X0028201Y0179249D01*
X0028348Y0179206D01*
X0028494Y0179159D01*
X0028639Y0179108D01*
X0028782Y0179053D01*
X0028924Y0178995D01*
X0029064Y0178933D01*
X0029203Y0178868D01*
X0029340Y0178799D01*
X0029475Y0178726D01*
X0029608Y0178650D01*
X0029739Y0178570D01*
X0029868Y0178488D01*
X0029995Y0178401D01*
X0030120Y0178312D01*
X0030242Y0178219D01*
X0030361Y0178123D01*
X0030479Y0178024D01*
X0030593Y0177923D01*
X0030705Y0177818D01*
X0030814Y0177710D01*
X0030920Y0177599D01*
X0031024Y0177486D01*
X0031124Y0177370D01*
X0031222Y0177252D01*
X0031316Y0177131D01*
X0031407Y0177008D01*
X0031495Y0176882D01*
X0031579Y0176754D01*
X0031661Y0176624D01*
X0031738Y0176492D01*
X0031813Y0176358D01*
X0031884Y0176222D01*
X0031951Y0176084D01*
X0032015Y0175944D01*
X0032075Y0175803D01*
X0032131Y0175661D01*
X0032184Y0175517D01*
X0032233Y0175371D01*
X0032278Y0175225D01*
X0032319Y0175077D01*
X0032356Y0174929D01*
X0032390Y0174779D01*
X0032420Y0174628D01*
X0032445Y0174477D01*
X0032467Y0174326D01*
X0032485Y0174173D01*
X0032499Y0174021D01*
X0032509Y0173868D01*
X0032515Y0173714D01*
X0032517Y0173561D01*
X0032515Y0173408D01*
X0032509Y0173254D01*
X0032499Y0173101D01*
X0032485Y0172949D01*
X0032467Y0172796D01*
X0032445Y0172645D01*
X0032420Y0172494D01*
X0032390Y0172343D01*
X0032356Y0172193D01*
X0032319Y0172045D01*
X0032278Y0171897D01*
X0032233Y0171751D01*
X0032184Y0171605D01*
X0032131Y0171461D01*
X0032075Y0171319D01*
X0032015Y0171178D01*
X0031951Y0171038D01*
X0031884Y0170900D01*
X0031813Y0170764D01*
X0031738Y0170630D01*
X0031661Y0170498D01*
X0031579Y0170368D01*
X0031495Y0170240D01*
X0031407Y0170114D01*
X0031316Y0169991D01*
X0031222Y0169870D01*
X0031124Y0169752D01*
X0031024Y0169636D01*
X0030920Y0169523D01*
X0030814Y0169412D01*
X0030705Y0169304D01*
X0030593Y0169199D01*
X0030479Y0169098D01*
X0030361Y0168999D01*
X0030242Y0168903D01*
X0030120Y0168810D01*
X0029995Y0168721D01*
X0029868Y0168634D01*
X0029739Y0168552D01*
X0029608Y0168472D01*
X0029475Y0168396D01*
X0029340Y0168323D01*
X0029203Y0168254D01*
X0029064Y0168189D01*
X0028924Y0168127D01*
X0028782Y0168069D01*
X0028639Y0168014D01*
X0028494Y0167963D01*
X0028348Y0167916D01*
X0028201Y0167873D01*
X0028053Y0167834D01*
X0027904Y0167798D01*
X0027754Y0167767D01*
X0027603Y0167739D01*
X0027452Y0167715D01*
X0027299Y0167695D01*
X0027147Y0167679D01*
X0026994Y0167667D01*
X0026841Y0167659D01*
X0026688Y0167655D01*
X0026534Y0167655D01*
X0026381Y0167659D01*
X0026228Y0167667D01*
X0026075Y0167679D01*
X0025923Y0167695D01*
X0025770Y0167715D01*
X0025619Y0167739D01*
X0025468Y0167767D01*
X0025318Y0167798D01*
X0025169Y0167834D01*
X0025021Y0167873D01*
X0024874Y0167916D01*
X0024728Y0167963D01*
X0024583Y0168014D01*
X0024440Y0168069D01*
X0024298Y0168127D01*
X0024158Y0168189D01*
X0024019Y0168254D01*
X0023882Y0168323D01*
X0023747Y0168396D01*
X0023614Y0168472D01*
X0023483Y0168552D01*
X0023354Y0168634D01*
X0023227Y0168721D01*
X0023102Y0168810D01*
X0022980Y0168903D01*
X0022861Y0168999D01*
X0022743Y0169098D01*
X0022629Y0169199D01*
X0022517Y0169304D01*
X0022408Y0169412D01*
X0022302Y0169523D01*
X0022198Y0169636D01*
X0022098Y0169752D01*
X0022000Y0169870D01*
X0021906Y0169991D01*
X0021815Y0170114D01*
X0021727Y0170240D01*
X0021643Y0170368D01*
X0021561Y0170498D01*
X0021484Y0170630D01*
X0021409Y0170764D01*
X0021338Y0170900D01*
X0021271Y0171038D01*
X0021207Y0171178D01*
X0021147Y0171319D01*
X0021091Y0171461D01*
X0021038Y0171605D01*
X0020989Y0171751D01*
X0020944Y0171897D01*
X0020903Y0172045D01*
X0020866Y0172193D01*
X0020832Y0172343D01*
X0020802Y0172494D01*
X0020777Y0172645D01*
X0020755Y0172796D01*
X0020737Y0172949D01*
X0020723Y0173101D01*
X0020713Y0173254D01*
X0020707Y0173408D01*
X0020705Y0173561D01*
X0220705Y0173561D02*
X0220707Y0173714D01*
X0220713Y0173868D01*
X0220723Y0174021D01*
X0220737Y0174173D01*
X0220755Y0174326D01*
X0220777Y0174477D01*
X0220802Y0174628D01*
X0220832Y0174779D01*
X0220866Y0174929D01*
X0220903Y0175077D01*
X0220944Y0175225D01*
X0220989Y0175371D01*
X0221038Y0175517D01*
X0221091Y0175661D01*
X0221147Y0175803D01*
X0221207Y0175944D01*
X0221271Y0176084D01*
X0221338Y0176222D01*
X0221409Y0176358D01*
X0221484Y0176492D01*
X0221561Y0176624D01*
X0221643Y0176754D01*
X0221727Y0176882D01*
X0221815Y0177008D01*
X0221906Y0177131D01*
X0222000Y0177252D01*
X0222098Y0177370D01*
X0222198Y0177486D01*
X0222302Y0177599D01*
X0222408Y0177710D01*
X0222517Y0177818D01*
X0222629Y0177923D01*
X0222743Y0178024D01*
X0222861Y0178123D01*
X0222980Y0178219D01*
X0223102Y0178312D01*
X0223227Y0178401D01*
X0223354Y0178488D01*
X0223483Y0178570D01*
X0223614Y0178650D01*
X0223747Y0178726D01*
X0223882Y0178799D01*
X0224019Y0178868D01*
X0224158Y0178933D01*
X0224298Y0178995D01*
X0224440Y0179053D01*
X0224583Y0179108D01*
X0224728Y0179159D01*
X0224874Y0179206D01*
X0225021Y0179249D01*
X0225169Y0179288D01*
X0225318Y0179324D01*
X0225468Y0179355D01*
X0225619Y0179383D01*
X0225770Y0179407D01*
X0225923Y0179427D01*
X0226075Y0179443D01*
X0226228Y0179455D01*
X0226381Y0179463D01*
X0226534Y0179467D01*
X0226688Y0179467D01*
X0226841Y0179463D01*
X0226994Y0179455D01*
X0227147Y0179443D01*
X0227299Y0179427D01*
X0227452Y0179407D01*
X0227603Y0179383D01*
X0227754Y0179355D01*
X0227904Y0179324D01*
X0228053Y0179288D01*
X0228201Y0179249D01*
X0228348Y0179206D01*
X0228494Y0179159D01*
X0228639Y0179108D01*
X0228782Y0179053D01*
X0228924Y0178995D01*
X0229064Y0178933D01*
X0229203Y0178868D01*
X0229340Y0178799D01*
X0229475Y0178726D01*
X0229608Y0178650D01*
X0229739Y0178570D01*
X0229868Y0178488D01*
X0229995Y0178401D01*
X0230120Y0178312D01*
X0230242Y0178219D01*
X0230361Y0178123D01*
X0230479Y0178024D01*
X0230593Y0177923D01*
X0230705Y0177818D01*
X0230814Y0177710D01*
X0230920Y0177599D01*
X0231024Y0177486D01*
X0231124Y0177370D01*
X0231222Y0177252D01*
X0231316Y0177131D01*
X0231407Y0177008D01*
X0231495Y0176882D01*
X0231579Y0176754D01*
X0231661Y0176624D01*
X0231738Y0176492D01*
X0231813Y0176358D01*
X0231884Y0176222D01*
X0231951Y0176084D01*
X0232015Y0175944D01*
X0232075Y0175803D01*
X0232131Y0175661D01*
X0232184Y0175517D01*
X0232233Y0175371D01*
X0232278Y0175225D01*
X0232319Y0175077D01*
X0232356Y0174929D01*
X0232390Y0174779D01*
X0232420Y0174628D01*
X0232445Y0174477D01*
X0232467Y0174326D01*
X0232485Y0174173D01*
X0232499Y0174021D01*
X0232509Y0173868D01*
X0232515Y0173714D01*
X0232517Y0173561D01*
X0232515Y0173408D01*
X0232509Y0173254D01*
X0232499Y0173101D01*
X0232485Y0172949D01*
X0232467Y0172796D01*
X0232445Y0172645D01*
X0232420Y0172494D01*
X0232390Y0172343D01*
X0232356Y0172193D01*
X0232319Y0172045D01*
X0232278Y0171897D01*
X0232233Y0171751D01*
X0232184Y0171605D01*
X0232131Y0171461D01*
X0232075Y0171319D01*
X0232015Y0171178D01*
X0231951Y0171038D01*
X0231884Y0170900D01*
X0231813Y0170764D01*
X0231738Y0170630D01*
X0231661Y0170498D01*
X0231579Y0170368D01*
X0231495Y0170240D01*
X0231407Y0170114D01*
X0231316Y0169991D01*
X0231222Y0169870D01*
X0231124Y0169752D01*
X0231024Y0169636D01*
X0230920Y0169523D01*
X0230814Y0169412D01*
X0230705Y0169304D01*
X0230593Y0169199D01*
X0230479Y0169098D01*
X0230361Y0168999D01*
X0230242Y0168903D01*
X0230120Y0168810D01*
X0229995Y0168721D01*
X0229868Y0168634D01*
X0229739Y0168552D01*
X0229608Y0168472D01*
X0229475Y0168396D01*
X0229340Y0168323D01*
X0229203Y0168254D01*
X0229064Y0168189D01*
X0228924Y0168127D01*
X0228782Y0168069D01*
X0228639Y0168014D01*
X0228494Y0167963D01*
X0228348Y0167916D01*
X0228201Y0167873D01*
X0228053Y0167834D01*
X0227904Y0167798D01*
X0227754Y0167767D01*
X0227603Y0167739D01*
X0227452Y0167715D01*
X0227299Y0167695D01*
X0227147Y0167679D01*
X0226994Y0167667D01*
X0226841Y0167659D01*
X0226688Y0167655D01*
X0226534Y0167655D01*
X0226381Y0167659D01*
X0226228Y0167667D01*
X0226075Y0167679D01*
X0225923Y0167695D01*
X0225770Y0167715D01*
X0225619Y0167739D01*
X0225468Y0167767D01*
X0225318Y0167798D01*
X0225169Y0167834D01*
X0225021Y0167873D01*
X0224874Y0167916D01*
X0224728Y0167963D01*
X0224583Y0168014D01*
X0224440Y0168069D01*
X0224298Y0168127D01*
X0224158Y0168189D01*
X0224019Y0168254D01*
X0223882Y0168323D01*
X0223747Y0168396D01*
X0223614Y0168472D01*
X0223483Y0168552D01*
X0223354Y0168634D01*
X0223227Y0168721D01*
X0223102Y0168810D01*
X0222980Y0168903D01*
X0222861Y0168999D01*
X0222743Y0169098D01*
X0222629Y0169199D01*
X0222517Y0169304D01*
X0222408Y0169412D01*
X0222302Y0169523D01*
X0222198Y0169636D01*
X0222098Y0169752D01*
X0222000Y0169870D01*
X0221906Y0169991D01*
X0221815Y0170114D01*
X0221727Y0170240D01*
X0221643Y0170368D01*
X0221561Y0170498D01*
X0221484Y0170630D01*
X0221409Y0170764D01*
X0221338Y0170900D01*
X0221271Y0171038D01*
X0221207Y0171178D01*
X0221147Y0171319D01*
X0221091Y0171461D01*
X0221038Y0171605D01*
X0220989Y0171751D01*
X0220944Y0171897D01*
X0220903Y0172045D01*
X0220866Y0172193D01*
X0220832Y0172343D01*
X0220802Y0172494D01*
X0220777Y0172645D01*
X0220755Y0172796D01*
X0220737Y0172949D01*
X0220723Y0173101D01*
X0220713Y0173254D01*
X0220707Y0173408D01*
X0220705Y0173561D01*
X0220705Y0013561D02*
X0220707Y0013714D01*
X0220713Y0013868D01*
X0220723Y0014021D01*
X0220737Y0014173D01*
X0220755Y0014326D01*
X0220777Y0014477D01*
X0220802Y0014628D01*
X0220832Y0014779D01*
X0220866Y0014929D01*
X0220903Y0015077D01*
X0220944Y0015225D01*
X0220989Y0015371D01*
X0221038Y0015517D01*
X0221091Y0015661D01*
X0221147Y0015803D01*
X0221207Y0015944D01*
X0221271Y0016084D01*
X0221338Y0016222D01*
X0221409Y0016358D01*
X0221484Y0016492D01*
X0221561Y0016624D01*
X0221643Y0016754D01*
X0221727Y0016882D01*
X0221815Y0017008D01*
X0221906Y0017131D01*
X0222000Y0017252D01*
X0222098Y0017370D01*
X0222198Y0017486D01*
X0222302Y0017599D01*
X0222408Y0017710D01*
X0222517Y0017818D01*
X0222629Y0017923D01*
X0222743Y0018024D01*
X0222861Y0018123D01*
X0222980Y0018219D01*
X0223102Y0018312D01*
X0223227Y0018401D01*
X0223354Y0018488D01*
X0223483Y0018570D01*
X0223614Y0018650D01*
X0223747Y0018726D01*
X0223882Y0018799D01*
X0224019Y0018868D01*
X0224158Y0018933D01*
X0224298Y0018995D01*
X0224440Y0019053D01*
X0224583Y0019108D01*
X0224728Y0019159D01*
X0224874Y0019206D01*
X0225021Y0019249D01*
X0225169Y0019288D01*
X0225318Y0019324D01*
X0225468Y0019355D01*
X0225619Y0019383D01*
X0225770Y0019407D01*
X0225923Y0019427D01*
X0226075Y0019443D01*
X0226228Y0019455D01*
X0226381Y0019463D01*
X0226534Y0019467D01*
X0226688Y0019467D01*
X0226841Y0019463D01*
X0226994Y0019455D01*
X0227147Y0019443D01*
X0227299Y0019427D01*
X0227452Y0019407D01*
X0227603Y0019383D01*
X0227754Y0019355D01*
X0227904Y0019324D01*
X0228053Y0019288D01*
X0228201Y0019249D01*
X0228348Y0019206D01*
X0228494Y0019159D01*
X0228639Y0019108D01*
X0228782Y0019053D01*
X0228924Y0018995D01*
X0229064Y0018933D01*
X0229203Y0018868D01*
X0229340Y0018799D01*
X0229475Y0018726D01*
X0229608Y0018650D01*
X0229739Y0018570D01*
X0229868Y0018488D01*
X0229995Y0018401D01*
X0230120Y0018312D01*
X0230242Y0018219D01*
X0230361Y0018123D01*
X0230479Y0018024D01*
X0230593Y0017923D01*
X0230705Y0017818D01*
X0230814Y0017710D01*
X0230920Y0017599D01*
X0231024Y0017486D01*
X0231124Y0017370D01*
X0231222Y0017252D01*
X0231316Y0017131D01*
X0231407Y0017008D01*
X0231495Y0016882D01*
X0231579Y0016754D01*
X0231661Y0016624D01*
X0231738Y0016492D01*
X0231813Y0016358D01*
X0231884Y0016222D01*
X0231951Y0016084D01*
X0232015Y0015944D01*
X0232075Y0015803D01*
X0232131Y0015661D01*
X0232184Y0015517D01*
X0232233Y0015371D01*
X0232278Y0015225D01*
X0232319Y0015077D01*
X0232356Y0014929D01*
X0232390Y0014779D01*
X0232420Y0014628D01*
X0232445Y0014477D01*
X0232467Y0014326D01*
X0232485Y0014173D01*
X0232499Y0014021D01*
X0232509Y0013868D01*
X0232515Y0013714D01*
X0232517Y0013561D01*
X0232515Y0013408D01*
X0232509Y0013254D01*
X0232499Y0013101D01*
X0232485Y0012949D01*
X0232467Y0012796D01*
X0232445Y0012645D01*
X0232420Y0012494D01*
X0232390Y0012343D01*
X0232356Y0012193D01*
X0232319Y0012045D01*
X0232278Y0011897D01*
X0232233Y0011751D01*
X0232184Y0011605D01*
X0232131Y0011461D01*
X0232075Y0011319D01*
X0232015Y0011178D01*
X0231951Y0011038D01*
X0231884Y0010900D01*
X0231813Y0010764D01*
X0231738Y0010630D01*
X0231661Y0010498D01*
X0231579Y0010368D01*
X0231495Y0010240D01*
X0231407Y0010114D01*
X0231316Y0009991D01*
X0231222Y0009870D01*
X0231124Y0009752D01*
X0231024Y0009636D01*
X0230920Y0009523D01*
X0230814Y0009412D01*
X0230705Y0009304D01*
X0230593Y0009199D01*
X0230479Y0009098D01*
X0230361Y0008999D01*
X0230242Y0008903D01*
X0230120Y0008810D01*
X0229995Y0008721D01*
X0229868Y0008634D01*
X0229739Y0008552D01*
X0229608Y0008472D01*
X0229475Y0008396D01*
X0229340Y0008323D01*
X0229203Y0008254D01*
X0229064Y0008189D01*
X0228924Y0008127D01*
X0228782Y0008069D01*
X0228639Y0008014D01*
X0228494Y0007963D01*
X0228348Y0007916D01*
X0228201Y0007873D01*
X0228053Y0007834D01*
X0227904Y0007798D01*
X0227754Y0007767D01*
X0227603Y0007739D01*
X0227452Y0007715D01*
X0227299Y0007695D01*
X0227147Y0007679D01*
X0226994Y0007667D01*
X0226841Y0007659D01*
X0226688Y0007655D01*
X0226534Y0007655D01*
X0226381Y0007659D01*
X0226228Y0007667D01*
X0226075Y0007679D01*
X0225923Y0007695D01*
X0225770Y0007715D01*
X0225619Y0007739D01*
X0225468Y0007767D01*
X0225318Y0007798D01*
X0225169Y0007834D01*
X0225021Y0007873D01*
X0224874Y0007916D01*
X0224728Y0007963D01*
X0224583Y0008014D01*
X0224440Y0008069D01*
X0224298Y0008127D01*
X0224158Y0008189D01*
X0224019Y0008254D01*
X0223882Y0008323D01*
X0223747Y0008396D01*
X0223614Y0008472D01*
X0223483Y0008552D01*
X0223354Y0008634D01*
X0223227Y0008721D01*
X0223102Y0008810D01*
X0222980Y0008903D01*
X0222861Y0008999D01*
X0222743Y0009098D01*
X0222629Y0009199D01*
X0222517Y0009304D01*
X0222408Y0009412D01*
X0222302Y0009523D01*
X0222198Y0009636D01*
X0222098Y0009752D01*
X0222000Y0009870D01*
X0221906Y0009991D01*
X0221815Y0010114D01*
X0221727Y0010240D01*
X0221643Y0010368D01*
X0221561Y0010498D01*
X0221484Y0010630D01*
X0221409Y0010764D01*
X0221338Y0010900D01*
X0221271Y0011038D01*
X0221207Y0011178D01*
X0221147Y0011319D01*
X0221091Y0011461D01*
X0221038Y0011605D01*
X0220989Y0011751D01*
X0220944Y0011897D01*
X0220903Y0012045D01*
X0220866Y0012193D01*
X0220832Y0012343D01*
X0220802Y0012494D01*
X0220777Y0012645D01*
X0220755Y0012796D01*
X0220737Y0012949D01*
X0220723Y0013101D01*
X0220713Y0013254D01*
X0220707Y0013408D01*
X0220705Y0013561D01*
D11*
X0226611Y0013561D03*
X0026611Y0013561D03*
X0026611Y0173561D03*
X0226611Y0173561D03*
D12*
X0160398Y0145665D03*
X0160398Y0137065D03*
X0160398Y0128465D03*
X0150398Y0128465D03*
X0150398Y0137065D03*
X0150398Y0145665D03*
X0077802Y0134335D03*
X0067802Y0134335D03*
X0067802Y0125635D03*
X0077802Y0125635D03*
D13*
X0055761Y0126628D02*
X0055761Y0123702D01*
X0052835Y0123702D01*
X0052835Y0126628D01*
X0055761Y0126628D01*
X0055761Y0124676D02*
X0052835Y0124676D01*
X0052835Y0125650D02*
X0055761Y0125650D01*
X0055761Y0126624D02*
X0052835Y0126624D01*
X0055761Y0120628D02*
X0055761Y0117702D01*
X0052835Y0117702D01*
X0052835Y0120628D01*
X0055761Y0120628D01*
X0055761Y0118676D02*
X0052835Y0118676D01*
X0052835Y0119650D02*
X0055761Y0119650D01*
X0055761Y0120624D02*
X0052835Y0120624D01*
X0076837Y0103187D02*
X0079763Y0103187D01*
X0076837Y0103187D02*
X0076837Y0106113D01*
X0079763Y0106113D01*
X0079763Y0103187D01*
X0079763Y0104161D02*
X0076837Y0104161D01*
X0076837Y0105135D02*
X0079763Y0105135D01*
X0079763Y0106109D02*
X0076837Y0106109D01*
X0082837Y0103187D02*
X0085763Y0103187D01*
X0082837Y0103187D02*
X0082837Y0106113D01*
X0085763Y0106113D01*
X0085763Y0103187D01*
X0085763Y0104161D02*
X0082837Y0104161D01*
X0082837Y0105135D02*
X0085763Y0105135D01*
X0085763Y0106109D02*
X0082837Y0106109D01*
X0099283Y0106164D02*
X0099283Y0103238D01*
X0096357Y0103238D01*
X0096357Y0106164D01*
X0099283Y0106164D01*
X0099283Y0104212D02*
X0096357Y0104212D01*
X0096357Y0105186D02*
X0099283Y0105186D01*
X0099283Y0106160D02*
X0096357Y0106160D01*
X0103243Y0109136D02*
X0103243Y0112062D01*
X0103243Y0109136D02*
X0100317Y0109136D01*
X0100317Y0112062D01*
X0103243Y0112062D01*
X0103243Y0110110D02*
X0100317Y0110110D01*
X0100317Y0111084D02*
X0103243Y0111084D01*
X0103243Y0112058D02*
X0100317Y0112058D01*
X0103243Y0115136D02*
X0103243Y0118062D01*
X0103243Y0115136D02*
X0100317Y0115136D01*
X0100317Y0118062D01*
X0103243Y0118062D01*
X0103243Y0116110D02*
X0100317Y0116110D01*
X0100317Y0117084D02*
X0103243Y0117084D01*
X0103243Y0118058D02*
X0100317Y0118058D01*
X0106217Y0118062D02*
X0106217Y0115136D01*
X0106217Y0118062D02*
X0109143Y0118062D01*
X0109143Y0115136D01*
X0106217Y0115136D01*
X0106217Y0116110D02*
X0109143Y0116110D01*
X0109143Y0117084D02*
X0106217Y0117084D01*
X0106217Y0118058D02*
X0109143Y0118058D01*
X0114983Y0118064D02*
X0114983Y0115138D01*
X0112057Y0115138D01*
X0112057Y0118064D01*
X0114983Y0118064D01*
X0114983Y0116112D02*
X0112057Y0116112D01*
X0112057Y0117086D02*
X0114983Y0117086D01*
X0114983Y0118060D02*
X0112057Y0118060D01*
X0120643Y0118062D02*
X0120643Y0115136D01*
X0117717Y0115136D01*
X0117717Y0118062D01*
X0120643Y0118062D01*
X0120643Y0116110D02*
X0117717Y0116110D01*
X0117717Y0117084D02*
X0120643Y0117084D01*
X0120643Y0118058D02*
X0117717Y0118058D01*
X0126363Y0118113D02*
X0126363Y0115187D01*
X0123437Y0115187D01*
X0123437Y0118113D01*
X0126363Y0118113D01*
X0126363Y0116161D02*
X0123437Y0116161D01*
X0123437Y0117135D02*
X0126363Y0117135D01*
X0126363Y0118109D02*
X0123437Y0118109D01*
X0129137Y0118113D02*
X0129137Y0115187D01*
X0129137Y0118113D02*
X0132063Y0118113D01*
X0132063Y0115187D01*
X0129137Y0115187D01*
X0129137Y0116161D02*
X0132063Y0116161D01*
X0132063Y0117135D02*
X0129137Y0117135D01*
X0129137Y0118109D02*
X0132063Y0118109D01*
X0129137Y0112113D02*
X0129137Y0109187D01*
X0129137Y0112113D02*
X0132063Y0112113D01*
X0132063Y0109187D01*
X0129137Y0109187D01*
X0129137Y0110161D02*
X0132063Y0110161D01*
X0132063Y0111135D02*
X0129137Y0111135D01*
X0129137Y0112109D02*
X0132063Y0112109D01*
X0126363Y0112113D02*
X0126363Y0109187D01*
X0123437Y0109187D01*
X0123437Y0112113D01*
X0126363Y0112113D01*
X0126363Y0110161D02*
X0123437Y0110161D01*
X0123437Y0111135D02*
X0126363Y0111135D01*
X0126363Y0112109D02*
X0123437Y0112109D01*
X0120643Y0112062D02*
X0120643Y0109136D01*
X0117717Y0109136D01*
X0117717Y0112062D01*
X0120643Y0112062D01*
X0120643Y0110110D02*
X0117717Y0110110D01*
X0117717Y0111084D02*
X0120643Y0111084D01*
X0120643Y0112058D02*
X0117717Y0112058D01*
X0114983Y0112064D02*
X0114983Y0109138D01*
X0112057Y0109138D01*
X0112057Y0112064D01*
X0114983Y0112064D01*
X0114983Y0110112D02*
X0112057Y0110112D01*
X0112057Y0111086D02*
X0114983Y0111086D01*
X0114983Y0112060D02*
X0112057Y0112060D01*
X0106217Y0112062D02*
X0106217Y0109136D01*
X0106217Y0112062D02*
X0109143Y0112062D01*
X0109143Y0109136D01*
X0106217Y0109136D01*
X0106217Y0110110D02*
X0109143Y0110110D01*
X0109143Y0111084D02*
X0106217Y0111084D01*
X0106217Y0112058D02*
X0109143Y0112058D01*
X0102257Y0106164D02*
X0102257Y0103238D01*
X0102257Y0106164D02*
X0105183Y0106164D01*
X0105183Y0103238D01*
X0102257Y0103238D01*
X0102257Y0104212D02*
X0105183Y0104212D01*
X0105183Y0105186D02*
X0102257Y0105186D01*
X0102257Y0106160D02*
X0105183Y0106160D01*
X0102257Y0100164D02*
X0102257Y0097238D01*
X0102257Y0100164D02*
X0105183Y0100164D01*
X0105183Y0097238D01*
X0102257Y0097238D01*
X0102257Y0098212D02*
X0105183Y0098212D01*
X0105183Y0099186D02*
X0102257Y0099186D01*
X0102257Y0100160D02*
X0105183Y0100160D01*
X0099283Y0100164D02*
X0099283Y0097238D01*
X0096357Y0097238D01*
X0096357Y0100164D01*
X0099283Y0100164D01*
X0099283Y0098212D02*
X0096357Y0098212D01*
X0096357Y0099186D02*
X0099283Y0099186D01*
X0099283Y0100160D02*
X0096357Y0100160D01*
X0095437Y0093013D02*
X0098363Y0093013D01*
X0098363Y0090087D01*
X0095437Y0090087D01*
X0095437Y0093013D01*
X0095437Y0091061D02*
X0098363Y0091061D01*
X0098363Y0092035D02*
X0095437Y0092035D01*
X0095437Y0093009D02*
X0098363Y0093009D01*
X0101437Y0093013D02*
X0104363Y0093013D01*
X0104363Y0090087D01*
X0101437Y0090087D01*
X0101437Y0093013D01*
X0101437Y0091061D02*
X0104363Y0091061D01*
X0104363Y0092035D02*
X0101437Y0092035D01*
X0101437Y0093009D02*
X0104363Y0093009D01*
X0087463Y0083413D02*
X0084537Y0083413D01*
X0087463Y0083413D02*
X0087463Y0080487D01*
X0084537Y0080487D01*
X0084537Y0083413D01*
X0084537Y0081461D02*
X0087463Y0081461D01*
X0087463Y0082435D02*
X0084537Y0082435D01*
X0084537Y0083409D02*
X0087463Y0083409D01*
X0081463Y0083413D02*
X0078537Y0083413D01*
X0081463Y0083413D02*
X0081463Y0080487D01*
X0078537Y0080487D01*
X0078537Y0083413D01*
X0078537Y0081461D02*
X0081463Y0081461D01*
X0081463Y0082435D02*
X0078537Y0082435D01*
X0078537Y0083409D02*
X0081463Y0083409D01*
X0137537Y0073113D02*
X0137537Y0070187D01*
X0137537Y0073113D02*
X0140463Y0073113D01*
X0140463Y0070187D01*
X0137537Y0070187D01*
X0137537Y0071161D02*
X0140463Y0071161D01*
X0140463Y0072135D02*
X0137537Y0072135D01*
X0137537Y0073109D02*
X0140463Y0073109D01*
X0137537Y0067113D02*
X0137537Y0064187D01*
X0137537Y0067113D02*
X0140463Y0067113D01*
X0140463Y0064187D01*
X0137537Y0064187D01*
X0137537Y0065161D02*
X0140463Y0065161D01*
X0140463Y0066135D02*
X0137537Y0066135D01*
X0137537Y0067109D02*
X0140463Y0067109D01*
X0140463Y0061413D02*
X0140463Y0058487D01*
X0137537Y0058487D01*
X0137537Y0061413D01*
X0140463Y0061413D01*
X0140463Y0059461D02*
X0137537Y0059461D01*
X0137537Y0060435D02*
X0140463Y0060435D01*
X0140463Y0061409D02*
X0137537Y0061409D01*
X0140463Y0055413D02*
X0140463Y0052487D01*
X0137537Y0052487D01*
X0137537Y0055413D01*
X0140463Y0055413D01*
X0140463Y0053461D02*
X0137537Y0053461D01*
X0137537Y0054435D02*
X0140463Y0054435D01*
X0140463Y0055409D02*
X0137537Y0055409D01*
X0123043Y0029007D02*
X0123043Y0026081D01*
X0123043Y0029007D02*
X0125969Y0029007D01*
X0125969Y0026081D01*
X0123043Y0026081D01*
X0123043Y0027055D02*
X0125969Y0027055D01*
X0125969Y0028029D02*
X0123043Y0028029D01*
X0123043Y0029003D02*
X0125969Y0029003D01*
X0123043Y0023007D02*
X0123043Y0020081D01*
X0123043Y0023007D02*
X0125969Y0023007D01*
X0125969Y0020081D01*
X0123043Y0020081D01*
X0123043Y0021055D02*
X0125969Y0021055D01*
X0125969Y0022029D02*
X0123043Y0022029D01*
X0123043Y0023003D02*
X0125969Y0023003D01*
X0140743Y0014293D02*
X0143669Y0014293D01*
X0140743Y0014293D02*
X0140743Y0017219D01*
X0143669Y0017219D01*
X0143669Y0014293D01*
X0143669Y0015267D02*
X0140743Y0015267D01*
X0140743Y0016241D02*
X0143669Y0016241D01*
X0143669Y0017215D02*
X0140743Y0017215D01*
X0146743Y0014293D02*
X0149669Y0014293D01*
X0146743Y0014293D02*
X0146743Y0017219D01*
X0149669Y0017219D01*
X0149669Y0014293D01*
X0149669Y0015267D02*
X0146743Y0015267D01*
X0146743Y0016241D02*
X0149669Y0016241D01*
X0149669Y0017215D02*
X0146743Y0017215D01*
X0098969Y0020693D02*
X0096043Y0020693D01*
X0096043Y0023619D01*
X0098969Y0023619D01*
X0098969Y0020693D01*
X0098969Y0021667D02*
X0096043Y0021667D01*
X0096043Y0022641D02*
X0098969Y0022641D01*
X0098969Y0023615D02*
X0096043Y0023615D01*
X0092969Y0020693D02*
X0090043Y0020693D01*
X0090043Y0023619D01*
X0092969Y0023619D01*
X0092969Y0020693D01*
X0092969Y0021667D02*
X0090043Y0021667D01*
X0090043Y0022641D02*
X0092969Y0022641D01*
X0092969Y0023615D02*
X0090043Y0023615D01*
X0162763Y0092787D02*
X0162763Y0095713D01*
X0162763Y0092787D02*
X0159837Y0092787D01*
X0159837Y0095713D01*
X0162763Y0095713D01*
X0162763Y0093761D02*
X0159837Y0093761D01*
X0159837Y0094735D02*
X0162763Y0094735D01*
X0162763Y0095709D02*
X0159837Y0095709D01*
X0162763Y0098787D02*
X0162763Y0101713D01*
X0162763Y0098787D02*
X0159837Y0098787D01*
X0159837Y0101713D01*
X0162763Y0101713D01*
X0162763Y0099761D02*
X0159837Y0099761D01*
X0159837Y0100735D02*
X0162763Y0100735D01*
X0162763Y0101709D02*
X0159837Y0101709D01*
X0159737Y0119287D02*
X0162663Y0119287D01*
X0159737Y0119287D02*
X0159737Y0122213D01*
X0162663Y0122213D01*
X0162663Y0119287D01*
X0162663Y0120261D02*
X0159737Y0120261D01*
X0159737Y0121235D02*
X0162663Y0121235D01*
X0162663Y0122209D02*
X0159737Y0122209D01*
X0165737Y0119287D02*
X0168663Y0119287D01*
X0165737Y0119287D02*
X0165737Y0122213D01*
X0168663Y0122213D01*
X0168663Y0119287D01*
X0168663Y0120261D02*
X0165737Y0120261D01*
X0165737Y0121235D02*
X0168663Y0121235D01*
X0168663Y0122209D02*
X0165737Y0122209D01*
X0133848Y0136085D02*
X0133848Y0139011D01*
X0133848Y0136085D02*
X0130922Y0136085D01*
X0130922Y0139011D01*
X0133848Y0139011D01*
X0133848Y0137059D02*
X0130922Y0137059D01*
X0130922Y0138033D02*
X0133848Y0138033D01*
X0133848Y0139007D02*
X0130922Y0139007D01*
X0133848Y0142085D02*
X0133848Y0145011D01*
X0133848Y0142085D02*
X0130922Y0142085D01*
X0130922Y0145011D01*
X0133848Y0145011D01*
X0133848Y0143059D02*
X0130922Y0143059D01*
X0130922Y0144033D02*
X0133848Y0144033D01*
X0133848Y0145007D02*
X0130922Y0145007D01*
X0118748Y0150385D02*
X0118748Y0153311D01*
X0118748Y0150385D02*
X0115822Y0150385D01*
X0115822Y0153311D01*
X0118748Y0153311D01*
X0118748Y0151359D02*
X0115822Y0151359D01*
X0115822Y0152333D02*
X0118748Y0152333D01*
X0118748Y0153307D02*
X0115822Y0153307D01*
X0118748Y0156385D02*
X0118748Y0159311D01*
X0118748Y0156385D02*
X0115822Y0156385D01*
X0115822Y0159311D01*
X0118748Y0159311D01*
X0118748Y0157359D02*
X0115822Y0157359D01*
X0115822Y0158333D02*
X0118748Y0158333D01*
X0118748Y0159307D02*
X0115822Y0159307D01*
X0121522Y0159311D02*
X0121522Y0156385D01*
X0121522Y0159311D02*
X0124448Y0159311D01*
X0124448Y0156385D01*
X0121522Y0156385D01*
X0121522Y0157359D02*
X0124448Y0157359D01*
X0124448Y0158333D02*
X0121522Y0158333D01*
X0121522Y0159307D02*
X0124448Y0159307D01*
X0121522Y0162385D02*
X0121522Y0165311D01*
X0124448Y0165311D01*
X0124448Y0162385D01*
X0121522Y0162385D01*
X0121522Y0163359D02*
X0124448Y0163359D01*
X0124448Y0164333D02*
X0121522Y0164333D01*
X0121522Y0165307D02*
X0124448Y0165307D01*
X0134022Y0173485D02*
X0134022Y0176411D01*
X0136948Y0176411D01*
X0136948Y0173485D01*
X0134022Y0173485D01*
X0134022Y0174459D02*
X0136948Y0174459D01*
X0136948Y0175433D02*
X0134022Y0175433D01*
X0134022Y0176407D02*
X0136948Y0176407D01*
X0139622Y0176411D02*
X0139622Y0173485D01*
X0139622Y0176411D02*
X0142548Y0176411D01*
X0142548Y0173485D01*
X0139622Y0173485D01*
X0139622Y0174459D02*
X0142548Y0174459D01*
X0142548Y0175433D02*
X0139622Y0175433D01*
X0139622Y0176407D02*
X0142548Y0176407D01*
X0139622Y0179485D02*
X0139622Y0182411D01*
X0142548Y0182411D01*
X0142548Y0179485D01*
X0139622Y0179485D01*
X0139622Y0180459D02*
X0142548Y0180459D01*
X0142548Y0181433D02*
X0139622Y0181433D01*
X0139622Y0182407D02*
X0142548Y0182407D01*
X0134022Y0182411D02*
X0134022Y0179485D01*
X0134022Y0182411D02*
X0136948Y0182411D01*
X0136948Y0179485D01*
X0134022Y0179485D01*
X0134022Y0180459D02*
X0136948Y0180459D01*
X0136948Y0181433D02*
X0134022Y0181433D01*
X0134022Y0182407D02*
X0136948Y0182407D01*
X0149822Y0181011D02*
X0149822Y0178085D01*
X0149822Y0181011D02*
X0152748Y0181011D01*
X0152748Y0178085D01*
X0149822Y0178085D01*
X0149822Y0179059D02*
X0152748Y0179059D01*
X0152748Y0180033D02*
X0149822Y0180033D01*
X0149822Y0181007D02*
X0152748Y0181007D01*
X0155622Y0181011D02*
X0155622Y0178085D01*
X0155622Y0181011D02*
X0158548Y0181011D01*
X0158548Y0178085D01*
X0155622Y0178085D01*
X0155622Y0179059D02*
X0158548Y0179059D01*
X0158548Y0180033D02*
X0155622Y0180033D01*
X0155622Y0181007D02*
X0158548Y0181007D01*
X0155622Y0175011D02*
X0155622Y0172085D01*
X0155622Y0175011D02*
X0158548Y0175011D01*
X0158548Y0172085D01*
X0155622Y0172085D01*
X0155622Y0173059D02*
X0158548Y0173059D01*
X0158548Y0174033D02*
X0155622Y0174033D01*
X0155622Y0175007D02*
X0158548Y0175007D01*
X0149822Y0175011D02*
X0149822Y0172085D01*
X0149822Y0175011D02*
X0152748Y0175011D01*
X0152748Y0172085D01*
X0149822Y0172085D01*
X0149822Y0173059D02*
X0152748Y0173059D01*
X0152748Y0174033D02*
X0149822Y0174033D01*
X0149822Y0175007D02*
X0152748Y0175007D01*
X0152748Y0169411D02*
X0149822Y0169411D01*
X0152748Y0169411D02*
X0152748Y0166485D01*
X0149822Y0166485D01*
X0149822Y0169411D01*
X0149822Y0167459D02*
X0152748Y0167459D01*
X0152748Y0168433D02*
X0149822Y0168433D01*
X0149822Y0169407D02*
X0152748Y0169407D01*
X0155822Y0169411D02*
X0158748Y0169411D01*
X0158748Y0166485D01*
X0155822Y0166485D01*
X0155822Y0169411D01*
X0155822Y0167459D02*
X0158748Y0167459D01*
X0158748Y0168433D02*
X0155822Y0168433D01*
X0155822Y0169407D02*
X0158748Y0169407D01*
X0164448Y0169411D02*
X0164448Y0166485D01*
X0161522Y0166485D01*
X0161522Y0169411D01*
X0164448Y0169411D01*
X0164448Y0167459D02*
X0161522Y0167459D01*
X0161522Y0168433D02*
X0164448Y0168433D01*
X0164448Y0169407D02*
X0161522Y0169407D01*
X0167222Y0169411D02*
X0167222Y0166485D01*
X0167222Y0169411D02*
X0170148Y0169411D01*
X0170148Y0166485D01*
X0167222Y0166485D01*
X0167222Y0167459D02*
X0170148Y0167459D01*
X0170148Y0168433D02*
X0167222Y0168433D01*
X0167222Y0169407D02*
X0170148Y0169407D01*
X0167222Y0163411D02*
X0167222Y0160485D01*
X0167222Y0163411D02*
X0170148Y0163411D01*
X0170148Y0160485D01*
X0167222Y0160485D01*
X0167222Y0161459D02*
X0170148Y0161459D01*
X0170148Y0162433D02*
X0167222Y0162433D01*
X0167222Y0163407D02*
X0170148Y0163407D01*
X0164448Y0163411D02*
X0164448Y0160485D01*
X0161522Y0160485D01*
X0161522Y0163411D01*
X0164448Y0163411D01*
X0164448Y0161459D02*
X0161522Y0161459D01*
X0161522Y0162433D02*
X0164448Y0162433D01*
X0164448Y0163407D02*
X0161522Y0163407D01*
X0158161Y0154228D02*
X0155235Y0154228D01*
X0158161Y0154228D02*
X0158161Y0151302D01*
X0155235Y0151302D01*
X0155235Y0154228D01*
X0155235Y0152276D02*
X0158161Y0152276D01*
X0158161Y0153250D02*
X0155235Y0153250D01*
X0155235Y0154224D02*
X0158161Y0154224D01*
X0152161Y0154228D02*
X0149235Y0154228D01*
X0152161Y0154228D02*
X0152161Y0151302D01*
X0149235Y0151302D01*
X0149235Y0154228D01*
X0149235Y0152276D02*
X0152161Y0152276D01*
X0152161Y0153250D02*
X0149235Y0153250D01*
X0149235Y0154224D02*
X0152161Y0154224D01*
D14*
X0142873Y0143840D02*
X0141423Y0143840D01*
X0141423Y0145290D01*
X0142873Y0145290D01*
X0142873Y0143840D01*
X0142873Y0145289D02*
X0141423Y0145289D01*
X0139373Y0143840D02*
X0137923Y0143840D01*
X0137923Y0145290D01*
X0139373Y0145290D01*
X0139373Y0143840D01*
X0139373Y0145289D02*
X0137923Y0145289D01*
D15*
X0175585Y0168763D03*
D16*
X0185585Y0178606D03*
X0195585Y0168763D03*
D17*
X0207100Y0064587D03*
X0207100Y0056713D03*
X0046100Y0059813D03*
X0046100Y0067687D03*
D18*
X0023659Y0077530D03*
X0023659Y0049970D03*
X0229541Y0046870D03*
X0229541Y0074430D03*
D19*
X0224847Y0105923D03*
X0224847Y0125923D03*
X0027200Y0130350D03*
X0027200Y0150350D03*
D20*
X0106506Y0007356D03*
D21*
X0116506Y0007356D03*
X0126506Y0007356D03*
X0136506Y0007356D03*
X0146506Y0007356D03*
X0156506Y0007356D03*
X0156506Y0037356D03*
X0146506Y0037356D03*
X0136506Y0037356D03*
X0126506Y0037356D03*
X0116506Y0037356D03*
X0106506Y0037356D03*
D22*
X0106606Y0030056D03*
X0102866Y0022056D03*
X0110346Y0022056D03*
X0129866Y0022056D03*
X0137346Y0022056D03*
X0133606Y0030056D03*
X0148166Y0021756D03*
X0155646Y0021756D03*
X0151906Y0029756D03*
X0160760Y0107250D03*
X0168240Y0107250D03*
X0164500Y0115250D03*
D23*
X0184219Y0042290D03*
X0201187Y0042290D03*
X0201187Y0009778D03*
X0184219Y0009778D03*
X0078447Y0009778D03*
X0061479Y0009778D03*
X0061479Y0042290D03*
X0078447Y0042290D03*
D24*
X0028350Y0094650D02*
X0028350Y0096450D01*
X0033850Y0096450D01*
X0033850Y0094650D01*
X0028350Y0094650D01*
X0028350Y0094849D02*
X0033850Y0094849D01*
X0033850Y0095048D02*
X0028350Y0095048D01*
X0028350Y0095247D02*
X0033850Y0095247D01*
X0033850Y0095446D02*
X0028350Y0095446D01*
X0028350Y0095645D02*
X0033850Y0095645D01*
X0033850Y0095844D02*
X0028350Y0095844D01*
X0028350Y0096043D02*
X0033850Y0096043D01*
X0033850Y0096242D02*
X0028350Y0096242D01*
X0028350Y0096441D02*
X0033850Y0096441D01*
X0028350Y0097250D02*
X0028350Y0099050D01*
X0033850Y0099050D01*
X0033850Y0097250D01*
X0028350Y0097250D01*
X0028350Y0097449D02*
X0033850Y0097449D01*
X0033850Y0097648D02*
X0028350Y0097648D01*
X0028350Y0097847D02*
X0033850Y0097847D01*
X0033850Y0098046D02*
X0028350Y0098046D01*
X0028350Y0098245D02*
X0033850Y0098245D01*
X0033850Y0098444D02*
X0028350Y0098444D01*
X0028350Y0098643D02*
X0033850Y0098643D01*
X0033850Y0098842D02*
X0028350Y0098842D01*
X0028350Y0099041D02*
X0033850Y0099041D01*
X0028350Y0099850D02*
X0028350Y0101650D01*
X0033850Y0101650D01*
X0033850Y0099850D01*
X0028350Y0099850D01*
X0028350Y0100049D02*
X0033850Y0100049D01*
X0033850Y0100248D02*
X0028350Y0100248D01*
X0028350Y0100447D02*
X0033850Y0100447D01*
X0033850Y0100646D02*
X0028350Y0100646D01*
X0028350Y0100845D02*
X0033850Y0100845D01*
X0033850Y0101044D02*
X0028350Y0101044D01*
X0028350Y0101243D02*
X0033850Y0101243D01*
X0033850Y0101442D02*
X0028350Y0101442D01*
X0028350Y0101641D02*
X0033850Y0101641D01*
X0028350Y0102450D02*
X0028350Y0104250D01*
X0033850Y0104250D01*
X0033850Y0102450D01*
X0028350Y0102450D01*
X0028350Y0102649D02*
X0033850Y0102649D01*
X0033850Y0102848D02*
X0028350Y0102848D01*
X0028350Y0103047D02*
X0033850Y0103047D01*
X0033850Y0103246D02*
X0028350Y0103246D01*
X0028350Y0103445D02*
X0033850Y0103445D01*
X0033850Y0103644D02*
X0028350Y0103644D01*
X0028350Y0103843D02*
X0033850Y0103843D01*
X0033850Y0104042D02*
X0028350Y0104042D01*
X0028350Y0104241D02*
X0033850Y0104241D01*
X0028350Y0105050D02*
X0028350Y0106850D01*
X0033850Y0106850D01*
X0033850Y0105050D01*
X0028350Y0105050D01*
X0028350Y0105249D02*
X0033850Y0105249D01*
X0033850Y0105448D02*
X0028350Y0105448D01*
X0028350Y0105647D02*
X0033850Y0105647D01*
X0033850Y0105846D02*
X0028350Y0105846D01*
X0028350Y0106045D02*
X0033850Y0106045D01*
X0033850Y0106244D02*
X0028350Y0106244D01*
X0028350Y0106443D02*
X0033850Y0106443D01*
X0033850Y0106642D02*
X0028350Y0106642D01*
X0028350Y0106841D02*
X0033850Y0106841D01*
D25*
X0017620Y0107630D02*
X0017620Y0101870D01*
X0017620Y0107630D02*
X0023380Y0107630D01*
X0023380Y0101870D01*
X0017620Y0101870D01*
X0017620Y0102509D02*
X0023380Y0102509D01*
X0023380Y0103148D02*
X0017620Y0103148D01*
X0017620Y0103787D02*
X0023380Y0103787D01*
X0023380Y0104426D02*
X0017620Y0104426D01*
X0017620Y0105065D02*
X0023380Y0105065D01*
X0023380Y0105704D02*
X0017620Y0105704D01*
X0017620Y0106343D02*
X0023380Y0106343D01*
X0023380Y0106982D02*
X0017620Y0106982D01*
X0017620Y0107621D02*
X0023380Y0107621D01*
X0017620Y0099630D02*
X0017620Y0093870D01*
X0017620Y0099630D02*
X0023380Y0099630D01*
X0023380Y0093870D01*
X0017620Y0093870D01*
X0017620Y0094509D02*
X0023380Y0094509D01*
X0023380Y0095148D02*
X0017620Y0095148D01*
X0017620Y0095787D02*
X0023380Y0095787D01*
X0023380Y0096426D02*
X0017620Y0096426D01*
X0017620Y0097065D02*
X0023380Y0097065D01*
X0023380Y0097704D02*
X0017620Y0097704D01*
X0017620Y0098343D02*
X0023380Y0098343D01*
X0023380Y0098982D02*
X0017620Y0098982D01*
X0017620Y0099621D02*
X0023380Y0099621D01*
D26*
X0031100Y0091450D03*
X0031100Y0091050D03*
X0031100Y0090450D03*
X0031100Y0110050D03*
X0031100Y0110550D03*
X0031100Y0111050D03*
D27*
X0021500Y0114550D03*
X0020400Y0114550D03*
X0019500Y0114550D03*
X0019500Y0086950D03*
X0020500Y0086950D03*
X0021500Y0086950D03*
D28*
X0106624Y0066331D03*
X0109774Y0066331D03*
X0112924Y0066331D03*
X0116073Y0066331D03*
X0120024Y0066431D03*
X0123174Y0066431D03*
X0126324Y0066431D03*
X0129473Y0066431D03*
X0129473Y0061510D03*
X0126324Y0061510D03*
X0123174Y0061510D03*
X0120024Y0061510D03*
X0116073Y0061410D03*
X0112924Y0061410D03*
X0109774Y0061410D03*
X0106624Y0061410D03*
D29*
X0047600Y0099149D03*
X0047600Y0114897D03*
D30*
X0222054Y0088364D03*
X0222054Y0143482D03*
D31*
X0232054Y0143482D03*
X0232054Y0088364D03*
D32*
X0085940Y0088031D03*
X0078460Y0088031D03*
X0078460Y0098269D03*
X0082200Y0098269D03*
X0085940Y0098269D03*
D33*
X0108584Y0099017D03*
X0111143Y0099017D03*
X0113702Y0099017D03*
X0116261Y0099017D03*
X0118820Y0099017D03*
X0121380Y0099017D03*
X0123939Y0099017D03*
X0126498Y0099017D03*
X0129057Y0099017D03*
X0131616Y0099017D03*
X0131616Y0074883D03*
X0129057Y0074883D03*
X0126498Y0074883D03*
X0123939Y0074883D03*
X0121380Y0074883D03*
X0118820Y0074883D03*
X0116320Y0074883D03*
X0113761Y0074883D03*
X0111202Y0074883D03*
X0108643Y0074883D03*
D34*
X0134233Y0147951D02*
X0134233Y0149841D01*
X0130847Y0151258D02*
X0128957Y0151258D01*
X0128957Y0153226D02*
X0130847Y0153226D01*
X0130847Y0155195D02*
X0128957Y0155195D01*
X0128957Y0157163D02*
X0130847Y0157163D01*
X0130847Y0159132D02*
X0128957Y0159132D01*
X0128957Y0161100D02*
X0130847Y0161100D01*
X0130847Y0163069D02*
X0128957Y0163069D01*
X0128957Y0165037D02*
X0130847Y0165037D01*
X0134233Y0166455D02*
X0134233Y0168345D01*
X0140138Y0168345D02*
X0140138Y0166455D01*
X0143524Y0165037D02*
X0145414Y0165037D01*
X0145414Y0163069D02*
X0143524Y0163069D01*
X0143524Y0161100D02*
X0145414Y0161100D01*
X0145414Y0159132D02*
X0143524Y0159132D01*
X0143524Y0157163D02*
X0145414Y0157163D01*
X0145414Y0155195D02*
X0143524Y0155195D01*
X0143524Y0153226D02*
X0145414Y0153226D01*
X0145414Y0151258D02*
X0143524Y0151258D01*
X0140138Y0149841D02*
X0140138Y0147951D01*
D35*
X0137185Y0158147D03*
D36*
X0135635Y0151748D02*
X0135635Y0150548D01*
X0138735Y0150548D01*
X0138735Y0151748D01*
X0135635Y0151748D01*
X0135635Y0151684D02*
X0138735Y0151684D01*
X0138735Y0151586D02*
X0135635Y0151586D01*
X0135635Y0151487D02*
X0138735Y0151487D01*
X0138735Y0151389D02*
X0135635Y0151389D01*
X0135635Y0151290D02*
X0138735Y0151290D01*
X0138735Y0151192D02*
X0135635Y0151192D01*
X0135635Y0151093D02*
X0138735Y0151093D01*
X0138735Y0150995D02*
X0135635Y0150995D01*
X0135635Y0150896D02*
X0138735Y0150896D01*
X0138735Y0150798D02*
X0135635Y0150798D01*
X0135635Y0150699D02*
X0138735Y0150699D01*
X0138735Y0150601D02*
X0135635Y0150601D01*
X0135635Y0164548D02*
X0135635Y0165748D01*
X0138735Y0165748D01*
X0138735Y0164548D01*
X0135635Y0164548D01*
X0135635Y0164589D02*
X0138735Y0164589D01*
X0138735Y0164688D02*
X0135635Y0164688D01*
X0135635Y0164786D02*
X0138735Y0164786D01*
X0138735Y0164885D02*
X0135635Y0164885D01*
X0135635Y0164983D02*
X0138735Y0164983D01*
X0138735Y0165082D02*
X0135635Y0165082D01*
X0135635Y0165180D02*
X0138735Y0165180D01*
X0138735Y0165279D02*
X0135635Y0165279D01*
X0135635Y0165377D02*
X0138735Y0165377D01*
X0138735Y0165476D02*
X0135635Y0165476D01*
X0135635Y0165574D02*
X0138735Y0165574D01*
X0138735Y0165673D02*
X0135635Y0165673D01*
D37*
X0136085Y0166398D03*
X0138285Y0166398D03*
X0138285Y0149898D03*
X0136085Y0149898D03*
D38*
X0071100Y0110250D03*
X0066100Y0110250D03*
X0061100Y0110250D03*
X0056100Y0110250D03*
X0056100Y0089250D03*
X0061100Y0089250D03*
X0066100Y0089250D03*
X0071100Y0089250D03*
D39*
X0189000Y0092850D03*
X0189000Y0119850D03*
D40*
X0105638Y0160350D03*
X0060362Y0160153D03*
D41*
X0168100Y0146050D03*
X0168100Y0141050D03*
X0168100Y0136050D03*
X0168100Y0131050D03*
X0189100Y0131050D03*
X0189100Y0136050D03*
X0189100Y0141050D03*
X0189100Y0146050D03*
D42*
X0148300Y0120281D03*
X0144560Y0111619D03*
X0152040Y0111619D03*
D43*
X0042300Y0027750D03*
D44*
X0204100Y0150250D03*
X0204100Y0160250D03*
M02*
